<?xml version="1.0" ?><svg height="20" version="1.1" viewBox="0 0 20 20" width="20" xmlns="http://www.w3.org/2000/svg"><g id="layer1"><path d="M 3 0 L 3 12 L 4 12 L 4 1 L 12 1 L 12 4 L 12 5 L 16 5 L 16 12 L 17 12 L 17 5 L 17 4 L 13 0 L 12 0 L 3 0 z M 13 1.3535156 L 15.646484 4 L 13 4 L 13 1.3535156 z M 1 13 L 1 18 L 2 18 L 2 16 L 4 16 L 4 18 L 5 18 L 5 13 L 4 13 L 4 15 L 2 15 L 2 13 L 1 13 z M 6 13 L 6 14 L 7.5 14 L 7.5 18 L 8.5 18 L 8.5 14 L 10 14 L 10 13 L 6 13 z M 11.494141 13 C 11.22048 13.003659 11.000433 13.226315 11 13.5 L 11 18 L 12.001953 18 L 12.001953 14.708984 L 12.646484 15.353516 C 12.842153 15.549568 13.1598 15.549568 13.355469 15.353516 L 14 14.708984 L 14 18 L 15.001953 18 L 15.001953 13.5 C 15.001826 13.053539 14.461746 12.830355 14.146484 13.146484 L 13 14.292969 L 11.855469 13.146484 C 11.759756 13.050855 11.629425 12.998018 11.494141 13 z M 16 13 L 16 18 L 20 18 L 20 17 L 17 17 L 17 13 L 16 13 z M 3 19 L 3 20 L 17 20 L 17 19 L 3 19 z " style="fill:#222222; fill-opacity:1; stroke:none; stroke-width:0px;"/></g></svg>